<svg width="109" height="22" viewBox="0 0 109 22" fill="none" xmlns="http://www.w3.org/2000/svg">
<rect x="9" width="100" height="22" rx="5" fill="#02C85A"/>
<circle cx="9" cy="11" r="9" fill="#07DB60"/>
<path d="M12 11.4286H9.42857V14H8.57143V11.4286H6V10.5714H8.57143V8H9.42857V10.5714H12V11.4286Z" fill="white"/>
<path d="M30.439 10.859C30.439 10.0521 30.6249 9.32835 30.9967 8.68762C31.3764 8.04689 31.8866 7.54855 32.5273 7.19259C33.176 6.82872 33.8839 6.64678 34.6512 6.64678C35.5293 6.64678 36.3084 6.86431 36.9887 7.29938C37.6769 7.72653 38.1752 8.33562 38.4837 9.12664H36.8582C36.6446 8.69158 36.348 8.36726 35.9683 8.15368C35.5886 7.94011 35.1496 7.83332 34.6512 7.83332C34.1054 7.83332 33.6189 7.95593 33.1918 8.20114C32.7646 8.44636 32.4284 8.79837 32.1832 9.25716C31.9459 9.71596 31.8273 10.2499 31.8273 10.859C31.8273 11.4681 31.9459 12.002 32.1832 12.4608C32.4284 12.9196 32.7646 13.2756 33.1918 13.5287C33.6189 13.7739 34.1054 13.8965 34.6512 13.8965C35.1496 13.8965 35.5886 13.7897 35.9683 13.5762C36.348 13.3626 36.6446 13.0383 36.8582 12.6032H38.4837C38.1752 13.3942 37.6769 14.0033 36.9887 14.4305C36.3084 14.8576 35.5293 15.0712 34.6512 15.0712C33.876 15.0712 33.1681 14.8932 32.5273 14.5373C31.8866 14.1734 31.3764 13.6711 30.9967 13.0303C30.6249 12.3896 30.439 11.6658 30.439 10.859ZM42.9028 15.1068C42.2858 15.1068 41.7282 14.9684 41.2298 14.6915C40.7315 14.4067 40.3399 14.0112 40.0552 13.505C39.7704 12.9908 39.628 12.3975 39.628 11.7252C39.628 11.0607 39.7743 10.4714 40.067 9.95722C40.3597 9.44305 40.7592 9.04754 41.2654 8.77068C41.7717 8.49382 42.3373 8.35539 42.9622 8.35539C43.5871 8.35539 44.1527 8.49382 44.6589 8.77068C45.1652 9.04754 45.5646 9.44305 45.8573 9.95722C46.15 10.4714 46.2963 11.0607 46.2963 11.7252C46.2963 12.3896 46.146 12.9789 45.8455 13.4931C45.5449 14.0073 45.1335 14.4067 44.6115 14.6915C44.0973 14.9684 43.5278 15.1068 42.9028 15.1068ZM42.9028 13.9321C43.2509 13.9321 43.5752 13.8491 43.8758 13.6829C44.1843 13.5168 44.4335 13.2677 44.6233 12.9354C44.8132 12.6032 44.9081 12.1998 44.9081 11.7252C44.9081 11.2505 44.8171 10.8511 44.6352 10.5268C44.4533 10.1945 44.212 9.94535 43.9114 9.77924C43.6108 9.61312 43.2865 9.53007 42.9384 9.53007C42.5904 9.53007 42.2661 9.61312 41.9655 9.77924C41.6728 9.94535 41.4395 10.1945 41.2654 10.5268C41.0914 10.8511 41.0044 11.2505 41.0044 11.7252C41.0044 12.4292 41.1824 12.975 41.5383 13.3626C41.9022 13.7423 42.357 13.9321 42.9028 13.9321ZM50.9321 8.35539C51.4463 8.35539 51.905 8.46218 52.3085 8.67576C52.7198 8.88933 53.0402 9.20574 53.2696 9.62499C53.499 10.0442 53.6137 10.5505 53.6137 11.1438V15H52.2729V11.3455C52.2729 10.7601 52.1265 10.3132 51.8339 10.0047C51.5412 9.68827 51.1417 9.53007 50.6355 9.53007C50.1292 9.53007 49.7258 9.68827 49.4252 10.0047C49.1325 10.3132 48.9862 10.7601 48.9862 11.3455V15H47.6335V8.46218H48.9862V9.2097C49.2077 8.94075 49.4885 8.73113 49.8286 8.58084C50.1767 8.43054 50.5445 8.35539 50.9321 8.35539ZM56.9171 9.56566V13.1846C56.9171 13.4298 56.9725 13.6078 57.0833 13.7185C57.2019 13.8214 57.3997 13.8728 57.6765 13.8728H58.5071V15H57.4392C56.8301 15 56.3634 14.8576 56.0391 14.5728C55.7148 14.2881 55.5526 13.8253 55.5526 13.1846V9.56566H54.7814V8.46218H55.5526V6.83663H56.9171V8.46218H58.5071V9.56566H56.9171ZM61.1065 9.41141C61.3042 9.07918 61.5652 8.8221 61.8896 8.64016C62.2218 8.45032 62.6134 8.35539 63.0642 8.35539V9.75551H62.7201C62.1902 9.75551 61.7867 9.88998 61.5099 10.1589C61.2409 10.4279 61.1065 10.8946 61.1065 11.559V15H59.7538V8.46218H61.1065V9.41141ZM63.8567 11.7014C63.8567 11.0449 63.9912 10.4635 64.2601 9.95722C64.537 9.45096 64.9088 9.05941 65.3755 8.78255C65.8501 8.49778 66.3722 8.35539 66.9417 8.35539C67.4559 8.35539 67.9028 8.45823 68.2825 8.66389C68.6701 8.86165 68.9786 9.11082 69.208 9.41141V8.46218H70.5725V15H69.208V14.027C68.9786 14.3355 68.6661 14.5926 68.2706 14.7983C67.8751 15.004 67.4242 15.1068 66.918 15.1068C66.3564 15.1068 65.8422 14.9644 65.3755 14.6796C64.9088 14.387 64.537 13.9835 64.2601 13.4694C63.9912 12.9473 63.8567 12.358 63.8567 11.7014ZM69.208 11.7252C69.208 11.2743 69.1131 10.8827 68.9232 10.5505C68.7413 10.2183 68.5 9.96513 68.1994 9.7911C67.8988 9.61708 67.5745 9.53007 67.2265 9.53007C66.8784 9.53007 66.5541 9.61708 66.2535 9.7911C65.9529 9.95722 65.7077 10.2064 65.5179 10.5386C65.3359 10.8629 65.245 11.2505 65.245 11.7014C65.245 12.1523 65.3359 12.5478 65.5179 12.888C65.7077 13.2281 65.9529 13.4891 66.2535 13.6711C66.562 13.8451 66.8863 13.9321 67.2265 13.9321C67.5745 13.9321 67.8988 13.8451 68.1994 13.6711C68.5 13.4971 68.7413 13.2439 68.9232 12.9117C69.1131 12.5716 69.208 12.176 69.208 11.7252ZM73.9273 9.56566V13.1846C73.9273 13.4298 73.9826 13.6078 74.0934 13.7185C74.212 13.8214 74.4098 13.8728 74.6866 13.8728H75.5172V15H74.4493C73.8402 15 73.3735 14.8576 73.0492 14.5728C72.7249 14.2881 72.5627 13.8253 72.5627 13.1846V9.56566H71.7915V8.46218H72.5627V6.83663H73.9273V8.46218H75.5172V9.56566H73.9273ZM76.313 11.7014C76.313 11.0449 76.4475 10.4635 76.7165 9.95722C76.9933 9.45096 77.3651 9.05941 77.8318 8.78255C78.3064 8.49778 78.8285 8.35539 79.398 8.35539C79.9122 8.35539 80.3591 8.45823 80.7388 8.66389C81.1264 8.86165 81.4349 9.11082 81.6643 9.41141V8.46218H83.0288V15H81.6643V14.027C81.4349 14.3355 81.1225 14.5926 80.727 14.7983C80.3314 15.004 79.8806 15.1068 79.3743 15.1068C78.8127 15.1068 78.2985 14.9644 77.8318 14.6796C77.3651 14.387 76.9933 13.9835 76.7165 13.4694C76.4475 12.9473 76.313 12.358 76.313 11.7014ZM81.6643 11.7252C81.6643 11.2743 81.5694 10.8827 81.3795 10.5505C81.1976 10.2183 80.9563 9.96513 80.6558 9.7911C80.3552 9.61708 80.0308 9.53007 79.6828 9.53007C79.3347 9.53007 79.0104 9.61708 78.7098 9.7911C78.4092 9.95722 78.164 10.2064 77.9742 10.5386C77.7923 10.8629 77.7013 11.2505 77.7013 11.7014C77.7013 12.1523 77.7923 12.5478 77.9742 12.888C78.164 13.2281 78.4092 13.4891 78.7098 13.6711C79.0183 13.8451 79.3427 13.9321 79.6828 13.9321C80.0308 13.9321 80.3552 13.8451 80.6558 13.6711C80.9563 13.4971 81.1976 13.2439 81.3795 12.9117C81.5694 12.5716 81.6643 12.176 81.6643 11.7252ZM86.1581 9.41141C86.3559 9.07918 86.6169 8.8221 86.9412 8.64016C87.2735 8.45032 87.665 8.35539 88.1159 8.35539V9.75551H87.7718C87.2418 9.75551 86.8384 9.88998 86.5616 10.1589C86.2926 10.4279 86.1581 10.8946 86.1581 11.559V15H84.8055V8.46218H86.1581V9.41141Z" fill="#FFFBFB"/>
</svg>
